<?xml version="1.0" encoding="UTF-8"?><svg id="Layer_2" xmlns="http://www.w3.org/2000/svg" viewBox="0 0 75.752 92.121"><g id="Layer_1-2"><g id="_1"><g><path d="M75.752,70.427c-1.047,4.695-3.648,15.165-5.017,21.694H.815l-.815-1.28C18.218,63.187,36.531,34.683,54.126,7.07H26.731c-9.889,0-11.949,1.69-15.042,7.117-1.54,2.634-2.86,5.598-4.318,9.252h-2.368C5.776,17.054,7.145,5.557,7.507,0h1.78c1.991,2.97,3.51,3.155,8.629,3.155h54.132l.459,1.232C54.694,31.946,35.402,62.359,19.381,88.022c3.326,.137,14.638,.184,24.26,.184,13.543,0,17.383-.869,21.44-4.858,2.868-2.793,6.125-7.98,8.438-13.42l2.231,.499Z" fill="#fff"/><g><path d="M45.845,72.177l-.367-.234c.414-.824,.42-.949-.498-1.533l-2.189-1.393c-.931-.593-1.722-.653-2.239,.16-.317,.498-.334,1.133-.244,1.89,.165,.087,.34,.161,.589,.319l2.543,1.619c.826,.526,.967,.449,1.504-.222l.367,.234-1.786,2.806-.367-.234c.439-.863,.461-1.014-.404-1.565l-2.255-1.435c-.97-.617-1.7-.658-2.209,.142-.334,.524-.305,1.261-.236,1.876l3.081,1.961c.865,.551,.976,.492,1.53-.205l.367,.234-1.794,2.819-.367-.234c.472-.916,.47-1.028-.395-1.578l-2.714-1.727c-.839-.534-.925-.515-1.523,.136l-.328-.209c.3-.675,.522-1.4,.635-2.156l1.062,.676c-.035-.409-.082-.826-.064-1.404-.001-.461,.051-.833,.318-1.253,.401-.629,1.136-.917,1.985-.745-.055-.551-.061-1.034-.075-1.503,0-.405,.076-.873,.318-1.253,.651-1.023,1.786-1.185,3.071-.367l2.531,1.61c.878,.559,.968,.505,1.522-.192l.367,.234-1.736,2.727Z" fill="#fff"/><path d="M50.918,64.554c-.125,.197-.414,.418-.642,.458-.279,.062-.512,.024-.79-.061,.02,.75,.097,1.701-.162,2.108-.592,.931-1.792,1.107-2.631,.573-.643-.409-.837-1.03-.627-1.91,.234-.975,.518-2.175,.466-2.614l-.262-.167c-.931-.593-1.769-.463-2.203,.219-.192,.302-.164,.577-.09,.808,.092,.261,.322,.536,.627,.896,.168,.199,.185,.376,.06,.572-.158,.249-.63,.41-.944,.21-.183-.117-.232-.388-.249-.767-.033-.556-.034-1.625,.284-2.472,.25-.394,.627-.725,1.055-.876,.685-.209,1.265-.135,1.947,.299l2.531,1.61c.603,.384,.928,.278,1.078,.042,.1-.157,.143-.37,.156-.564l.451,.103-.054,1.532Zm-3.927-1.154c-.039,.38-.165,1.185-.225,1.57-.094,.64-.037,1.101,.448,1.409,.695,.442,1.343,.118,1.61-.302,.217-.341,.307-.946,.212-1.375l-2.046-1.302Z" fill="#fff"/><path d="M51.007,59.839c.049,.473,.223,.749,.381,.85,.236,.15,.64,.095,1.016-.496,.309-.485,.646-1.044,.921-1.477,.534-.839,1.494-1.739,2.792-.913,1.363,.868,1.622,3.298,.512,5.042-.943,1.482-2.318,1.731-3.108,1.265-.289-.184-.462-.46-.539-.803-.108-.437-.216-1.224-.26-1.676-.432,.389-.95,.538-1.334,.533-.272-.007-.533-.118-.664-.201,.134-.615,.05-1.294-.137-1.782l.419-.341Zm.532-.546c-.776,1.219-2.166,1.753-3.398,.969-1.495-.951-1.339-2.731-.688-3.754,.275-.432,.668-.79,1.129-1.05,.384-.603,.78-1.456,.921-1.882l.168-.003c.16,.212,.393,.655,.386,.927-.125,.197-.453,.596-.583,.771,.443-.031,.963,.079,1.435,.379,1.429,.909,1.347,2.515,.629,3.643Zm2.132,.933c-.409,.643-.514,.981-.467,1.342,.068,.559,.294,1.072,.674,1.313,.721,.459,1.734,.054,2.377-.956,.793-1.246,.601-2.362-.238-2.896-.446-.284-.933-.299-1.325-.032-.353,.236-.671,.678-1.021,1.229Zm-5.883-3.32c-.375,.59-.172,1.457,.864,2.116s2.091,.594,2.55-.128c.341-.593,.181-1.414-.881-2.09-1.023-.651-2.066-.633-2.533,.101Z" fill="#fff"/><path d="M58.445,52.726c-.125,.197-.414,.418-.642,.458-.279,.062-.512,.024-.79-.061,.02,.75,.097,1.701-.162,2.108-.592,.931-1.792,1.107-2.631,.573-.643-.409-.837-1.03-.627-1.91,.234-.975,.518-2.175,.466-2.614l-.262-.167c-.931-.593-1.769-.463-2.203,.219-.192,.302-.164,.577-.09,.808,.092,.261,.322,.536,.627,.896,.168,.199,.185,.376,.06,.572-.158,.249-.63,.41-.944,.21-.183-.117-.232-.388-.249-.767-.033-.556-.034-1.625,.284-2.472,.25-.394,.627-.725,1.055-.876,.685-.209,1.265-.135,1.947,.299l2.531,1.61c.603,.384,.928,.278,1.078,.042,.1-.157,.143-.37,.156-.564l.451,.103-.054,1.532Zm-3.927-1.154c-.039,.38-.165,1.185-.225,1.57-.094,.64-.037,1.101,.448,1.409,.695,.442,1.343,.118,1.61-.302,.217-.341,.307-.946,.212-1.375l-2.046-1.302Z" fill="#fff"/><path d="M60.848,44.897c.403,.496,.984,1.233,1.319,1.632l-2.804,4.406-.26-.055c-.926-2.192-1.961-4.416-2.968-6.568l-.809,1.272c-.593,.931-.548,1.18,.254,2.409l-.352,.292c-.406-.461-1.111-1.149-1.629-1.608l.184-.289c.247,.046,.434-.074,.743-.559l1.969-3.094,.247,.047c.914,2.037,1.963,4.326,3.014,6.524l.893-1.403c.634-.997,.564-1.465-.162-2.756l.361-.249Z" fill="#fff"/><path d="M62.877,45.414l-.367-.234c.447-.876,.44-1.01-.452-1.577l-2.701-1.719c-.813-.517-.891-.511-1.522,.192l-.315-.2c.316-.757,.538-1.481,.661-2.195l1.652,1.051,2.885,1.836c.891,.567,1.016,.517,1.637-.285l.367,.234-1.844,2.898Zm-6.357-5.961c-.233,.367-.77,.486-1.137,.253-.42-.267-.512-.787-.27-1.167,.234-.367,.727-.477,1.147-.21,.367,.234,.503,.744,.261,1.124Z" fill="#fff"/><path d="M67.542,38.084l-.367-.234c.405-.811,.364-.947-.528-1.515l-2.163-1.377c-.918-.584-1.743-.649-2.293,.217-.342,.537-.353,1.249-.244,1.889l3.068,1.953c.905,.576,.981,.514,1.552-.21l.367,.234-1.802,2.832-.367-.234c.459-.924,.457-1.036-.408-1.587l-2.701-1.719c-.852-.542-.95-.475-1.518,.158l-.341-.217c.304-.709,.543-1.46,.644-2.17l1.036,.659c-.017-.379-.03-.792-.036-1.275-.002-.518,.057-.958,.3-1.339,.668-1.049,1.858-1.212,3.13-.403l2.491,1.586c.891,.567,.981,.514,1.543-.197l.367,.234-1.727,2.714Z" fill="#fff"/><path d="M71.677,29.127c.515,1.507,.154,2.566-.113,2.986-1.018,1.6-2.947,1.735-4.455,.776-.891-.567-1.517-1.407-1.752-2.313-.266-.943-.148-1.881,.286-2.563,.726-1.14,2.26-1.38,3.309-.713,.254,.18,.347,.294,.266,.537-.114,.296-1.064,2.049-2.005,3.643,1.732,1.158,3.137,.541,3.73-.39,.342-.537,.436-1.178,.299-1.947l.435-.018Zm-5.736-.482c-.384,.603-.196,1.552,.75,2.411,.467-.734,.935-1.469,1.388-2.267,.15-.236,.135-.356-.062-.482-.687-.455-1.608-.397-2.075,.337Z" fill="#fff"/></g></g><path d="M74.754,29.044c-.559,0-.981-.429-.981-1.026,0-.575,.417-1.026,.981-1.026,.575,0,.998,.451,.998,1.026,0,.597-.429,1.026-.998,1.026Z" fill="#ed196d"/></g></g></svg>